HIERARCHY
ROOT root
{
	OFFSET	0	13.1	24.9
	CHANNELS 6  Xposition Yposition Zposition Xrotation Yrotation Zrotation
	JOINT spine_1
	{
		OFFSET	0	9.99999	0
		CHANNELS 3  Xrotation Yrotation Zrotation
		JOINT spine_2
		{
			OFFSET	0	112	-10
			CHANNELS 3  Xrotation Yrotation Zrotation
			JOINT spine_3
			{
				OFFSET	0	206.5	19.3
				CHANNELS 3  Xrotation Yrotation Zrotation
				JOINT spine_4
				{
					OFFSET	0	110.4	14.6
					CHANNELS 3  Xrotation Yrotation Zrotation
					JOINT neck_1
					{
						OFFSET	0	71.8	-50.3
						CHANNELS 3  Xrotation Yrotation Zrotation
						JOINT neck_2
						{
							OFFSET	0	86.2	-25.8
							CHANNELS 3  Xrotation Yrotation Zrotation
							JOINT head_ee
							{
								OFFSET	0	179.8	-8.7
								CHANNELS 3  Xrotation Yrotation Zrotation
								End Site
								{
									OFFSET	1	0	0
								}
							}
						}
					}
					JOINT left_clavicle
					{
						OFFSET	-43.2	22.4	-70.8
						CHANNELS 3  Xrotation Yrotation Zrotation
						JOINT left_shoulder
						{
							OFFSET	-93.9	-5.79999	48.7
							CHANNELS 3  Xrotation Yrotation Zrotation
							JOINT left_elbow
							{
								OFFSET	-291.4	-30.8	15.2
								CHANNELS 3  Xrotation Yrotation Zrotation
								JOINT left_lowarm_twist
								{
									OFFSET	-110.7	-3.89999	13.6
									CHANNELS 3  Xrotation Yrotation Zrotation
									JOINT left_hand
									{
										OFFSET	-110.7	-3.89999	13.6
										CHANNELS 3  Xrotation Yrotation Zrotation
										JOINT left_ee
										{
											OFFSET	-80.8	-5.10001	12.1
											CHANNELS 3  Xrotation Yrotation Zrotation
											End Site
											{
												OFFSET	1	0	0
											}
										}
									}
								}
							}
						}
					}
					JOINT right_clavicle
					{
						OFFSET	43.2	22.4	-70.8
						CHANNELS 3  Xrotation Yrotation Zrotation
						JOINT right_shoulder
						{
							OFFSET	93.9	-5.79999	48.7
							CHANNELS 3  Xrotation Yrotation Zrotation
							JOINT right_elbow
							{
								OFFSET	291.4	-30.8	15.2
								CHANNELS 3  Xrotation Yrotation Zrotation
								JOINT right_lowarm_twist
								{
									OFFSET	110.7	-3.89999	13.6
									CHANNELS 3  Xrotation Yrotation Zrotation
									JOINT right_hand
									{
										OFFSET	110.7	-3.89999	13.6
										CHANNELS 3  Xrotation Yrotation Zrotation
										JOINT right_ee
										{
											OFFSET	80.8	-5.10001	12.1
											CHANNELS 3  Xrotation Yrotation Zrotation
											End Site
											{
												OFFSET	1	0	0
											}
										}
									}
								}
							}
						}
					}
				}
			}
		}
	}
	JOINT left_hip
	{
		OFFSET	-82.8	-127.5	0.300001
		CHANNELS 3  Xrotation Yrotation Zrotation
		JOINT left_knee
		{
			OFFSET	-28.2	-396.7	2.2
			CHANNELS 3  Xrotation Yrotation Zrotation
			JOINT left_ankle
			{
				OFFSET	-11.7	-411.3	35.4
				CHANNELS 3  Xrotation Yrotation Zrotation
				JOINT left_toes
				{
					OFFSET	0	-60	-88.6
					CHANNELS 3  Xrotation Yrotation Zrotation
					JOINT left_foot_ee
					{
						OFFSET	-22.5	-16.5	-42.2
						CHANNELS 3  Xrotation Yrotation Zrotation
						End Site
						{
							OFFSET	1	0	0
						}
					}
				}
			}
		}
	}
	JOINT right_hip
	{
		OFFSET	82.8	-127.5	0.300001
		CHANNELS 3  Xrotation Yrotation Zrotation
		JOINT right_knee
		{
			OFFSET	28.2	-396.7	2.2
			CHANNELS 3  Xrotation Yrotation Zrotation
			JOINT right_ankle
			{
				OFFSET	11.7	-411.3	35.4
				CHANNELS 3  Xrotation Yrotation Zrotation
				JOINT right_toes
				{
					OFFSET	0	-60	-88.6
					CHANNELS 3  Xrotation Yrotation Zrotation
					JOINT right_foot_ee
					{
						OFFSET	22.5	-16.5	-42.2
						CHANNELS 3  Xrotation Yrotation Zrotation
						End Site
						{
							OFFSET	1	0	0
						}
					}
				}
			}
		}
	}
}
MOTION
Frames: 5
Frame Time: 0.02
3467.87550324 733.494 -1515.37713035 21.0924893435 63.8734123153 -15.690377697 -1.53123 -0.17233 -3.04639 -1.52607 0.0217763 -3.05117 -1.52303 0.742174 -2.9597 -1.53515 0.265658 -3.03968 -13.2954 3.51327 9.14657 -13.0605 0.981652 9.77335 -0.0 0.0 -0.0 0.980278 22.9243 4.01257 -8.93317 -27.6966 73.686 2.21153 -47.6037 0.975584 -46.8038 -3.70205 4.50539 -0.618989 8.39955 -0.509914 -0.0 0.0 -0.0 0.597846 12.8731 0.263138 4.29171 24.2206 -72.0891 0.38346 10.7557 -0.0360982 23.5657 -0.220029 2.98112 -1.32588 -24.9344 -2.37501 0.0 0.0 0.0 11.387 5.27721 -9.90477 -38.2238 -0.357652 5.74802 38.2574 14.2379 -4.76264 -15.0513 0.0 0.0 -0.0 0.0 -0.0 -13.7962 26.8935 -8.33831 -14.0924 -0.319226 -2.13366 40.9085 -5.64452 4.93599 -9.50377 0.0 0.0 0.0 0.0 0.0 
3469.09610569 733.494 -1518.44265587 19.9470331722 62.3206030894 -14.4060373567 -1.53123 -0.17233 -3.04639 -1.52607 0.0217763 -3.05117 -1.52303 0.742174 -2.9597 -1.53515 0.265658 -3.03968 -13.2954 3.51327 9.14657 -13.0605 0.981652 9.77335 -0.0 0.0 -0.0 0.980278 22.9243 4.01257 -8.93317 -27.6966 73.686 2.21153 -47.6037 0.975584 -46.8038 -3.70205 4.50539 -0.618989 8.39955 -0.509914 -0.0 0.0 -0.0 0.597846 12.8731 0.263138 4.29171 24.2206 -72.0891 0.38346 10.7557 -0.0360982 23.5657 -0.220029 2.98112 -1.32588 -24.9344 -2.37501 0.0 0.0 0.0 11.387 5.27721 -9.90477 -38.2238 -0.357652 5.74802 38.2574 14.2379 -4.76264 -15.0513 0.0 0.0 -0.0 0.0 -0.0 -13.7962 26.8935 -8.33831 -14.0924 -0.319226 -2.13366 40.9085 -5.64452 4.93599 -9.50377 0.0 0.0 0.0 0.0 0.0 
3461.35343121 731.233 -1516.66447325 20.8510157783 63.0589967352 -15.4216065398 -1.64924 -0.166197 -2.96379 -1.64435 0.0226494 -2.96836 -1.64141 0.729371 -2.87752 -1.65287 0.265976 -2.95652 -13.2677 3.764 8.58117 -13.0626 1.80919 9.30779 -0.0 0.0 -0.0 0.943825 22.2919 3.90993 -10.1518 -27.2099 73.9937 1.7794 -41.3912 0.672271 -46.3756 -3.65329 4.48005 -0.644583 8.16979 -0.774032 -0.0 0.0 -0.0 1.10586 14.0045 -0.685213 6.33075 24.3632 -72.0099 0.506902 14.096 -0.0626712 23.3265 -0.223988 2.95082 -1.32696 -24.3343 -2.10335 0.0 0.0 0.0 12.0227 3.23874 -10.1377 -38.2155 -0.357159 5.74684 38.3783 13.1084 -4.75992 -14.3126 0.0 0.0 -0.0 0.0 -0.0 -14.9751 27.1154 -7.95664 -13.8846 -0.318356 -2.10179 41.427 -5.94172 4.98006 -8.92783 0.0 0.0 0.0 0.0 0.0 
3462.8588945 727.952 -1512.84983295 21.2356100683 64.5292772511 -15.8399168807 -1.74527 -0.35232 -2.80146 -1.74092 -0.173414 -2.81819 -1.7282 0.507103 -2.77764 -1.73896 0.062245 -2.82283 -15.1251 3.86247 8.95363 -14.9024 2.08127 9.7257 -0.0 0.0 -0.0 0.860301 22.3253 3.79555 -11.553 -26.7838 74.1878 1.58479 -38.1313 0.54775 -45.1058 -3.50979 4.40277 -0.787537 9.13326 -1.27995 -0.0 0.0 -0.0 1.13933 14.7142 -0.681011 11.1061 25.6429 -72.1065 0.682337 18.6758 -0.112202 23.0432 -0.228512 2.91492 -1.39826 -25.7214 -2.31811 0.0 0.0 0.0 14.2576 1.87317 -10.5712 -35.7444 -0.218459 5.39338 32.092 17.6246 -4.19441 -13.469 0.0 0.0 -0.0 0.0 -0.0 -15.9003 28.2548 -8.1327 -8.99105 -0.26447 -1.35309 40.5313 -6.38826 4.90511 -9.26221 0.0 0.0 0.0 0.0 0.0 
3450.86060815 727.755 -1507.70078174 22.270701267 66.7632980191 -17.2680027497 -1.67465 -0.249277 -2.60611 -1.67088 -0.0829966 -2.61668 -1.66368 0.543735 -2.56094 -1.67281 0.132603 -2.61463 -14.6564 5.36367 10.4077 -14.3632 3.99599 11.5636 -0.0 0.0 -0.0 0.750634 22.2586 3.63587 -12.3619 -26.3429 74.9943 1.14538 -29.5691 0.302303 -43.9247 -3.3779 4.32807 -0.884108 11.0412 -1.06723 -0.0 0.0 -0.0 1.13165 15.3333 -0.599275 13.8326 26.3098 -72.8524 0.938523 24.9341 -0.207504 23.2436 -0.22533 2.94032 -1.07198 -23.7866 -3.31689 0.0 0.0 0.0 15.6282 0.813581 -11.1681 -35.0095 -0.18017 5.28716 28.7158 22.1353 -3.89674 -12.1739 0.0 0.0 -0.0 0.0 -0.0 -17.1342 28.9345 -7.27629 -6.34886 -0.208853 -0.951483 39.4356 -5.38556 4.80871 -9.00678 0.0 0.0 0.0 0.0 0.0 
